<?xml version="1.0" encoding="iso-8859-1"?>
<!-- Uploaded to: SVG Repo, www.svgrepo.com, Generator: SVG Repo Mixer Tools -->
<svg height="800px" width="800px" version="1.1" id="Layer_1" xmlns="http://www.w3.org/2000/svg" xmlns:xlink="http://www.w3.org/1999/xlink" 
	 viewBox="0 0 448.045 448.045" xml:space="preserve">
<g transform="translate(0 -1020.36)">
	<g shape-rendering="auto" image-rendering="auto" color-rendering="auto" color-interpolation="sRGB">
		<g>
			<path style="fill:#FFFFFF;" d="M16.182,1144.404h315l20.625,32h-55.719c-0.23-0.01-0.46-0.01-0.689,0
				c-4.122,0.404-7.254,3.889-7.219,8.031v79.969c-0.017,4.395,3.513,7.979,7.906,8.031h122.156
				c5.757,8.439,10.951,17.004,12.375,22.781c2.673,10.846,0.847,31.352-2.25,48.314c-2.516,13.768-4.723,21.031-5.781,24.906
				c-135.452,0.176-270.941,0-406.406,0v-224.031L16.182,1144.404z"/>
			<path style="fill:#EBFEFF;" d="M32.576,1153.242h290.156l18.997,29.477h-51.324c-0.212-0.01-0.423-0.01-0.635,0
				c-3.797,0.373-6.682,3.582-6.65,7.396v73.662c-0.015,4.047,3.236,7.348,7.282,7.396h112.522
				c5.303,7.773,10.087,15.662,11.399,20.984c2.461,9.99,0.78,28.881-2.068,44.504c-2.316,12.682-4.354,19.371-5.328,22.941
				c-124.769,0.176-249.572,0-374.352,0L32.576,1153.242L32.576,1153.242z"/>
			<path style="fill:#29A3EC;" d="M304.119,1192.341h57.937l32.188,49.969c0.274,0.424,0.588,0.82,0.937,1.184
				c0,0,5.086,5.643,11.094,12.875H304.119v-64.031L304.119,1192.341z"/>
			<path style="fill:#3CDEF6;" d="M309.79,1195.896h51.506l28.614,44.42c0.242,0.377,0.52,0.73,0.828,1.057
				c0,0,4.517,5.02,9.862,11.447h-90.815v-56.924H309.79z"/>
			<path style="fill:#5A3392;" d="M279.747,1104.384c-4.608,0-9.209,1.439-13.188,4.123c-6.646,4.492-10.322,12.086-10.281,19.938
				H8.028c-0.28-0.016-0.561-0.016-0.841,0c-4.074,0.416-7.177,3.842-7.188,7.938v240c-0.017,4.418,3.552,8.014,7.97,8.031
				c0.02,0,0.041,0,0.061,0l56.937,0.16c4.41,0.283,8.214-3.063,8.497-7.473c0.283-4.408-3.062-8.213-7.472-8.496
				c-0.341-0.021-0.684-0.021-1.025,0l-48.906-0.16v-224.063h315l63.062,97.906c0.274,0.424,0.588,0.82,0.937,1.184
				c0,0,7.762,8.186,16.187,19c8.426,10.814,17.256,24.629,19.25,32.719c2.673,10.846,0.847,31.352-2.25,48.314
				c-2.51,13.766-4.602,21.027-5.654,24.906l-54.094,0.16c-4.41-0.283-8.214,3.063-8.497,7.473
				c-0.283,4.408,3.062,8.213,7.472,8.496c0.341,0.021,0.684,0.021,1.025,0l60.469-0.16c3.572-0.004,6.709-2.375,7.687-5.811
				c0,0,4.064-14.316,7.312-32.125c3.247-17.811,6.122-38.807,2.123-55.031c-3.32-13.469-13.237-27.355-22.187-38.844
				c-8.808-11.307-16.648-19.57-16.906-19.846c-0.004-0.004-0.242-0.367-0.242-0.367l-64.594-100.281
				c-1.474-2.281-4.003-3.658-6.718-3.658h-31.688c0.061-8.1-3.743-15.848-10.719-20.281l0,0c-4.052-2.576-8.674-3.811-13.281-3.748
				L279.747,1104.384z"/>
			<path style="fill:#3CDEF6;" d="M279.903,1120.476c1.566,0,3.132,0.367,4.499,1.248c2.395,1.52,3.483,4.068,3.405,6.717h-15.469
				c-0.122-2.57,0.792-5.049,3.096-6.592c1.343-0.896,2.903-1.359,4.469-1.377V1120.476z"/>
			<path style="fill:#5A3392;" d="M279.91,1048.382c-4.418,0.047-7.962,3.668-7.914,8.086c0,0.021,0.001,0.041,0.001,0.063v23.74
				c0.004,4.436,3.603,8.027,8.038,8.025c4.43-0.004,8.021-3.596,8.024-8.025v-23.74c0.082-4.418-3.432-8.066-7.85-8.148
				C280.109,1048.38,280.01,1048.38,279.91,1048.382z"/>
		</g>
		<path style="fill:#EE746C;" d="M136.054,1191.359c31.577,0,56.985,25.406,56.984,56.984c0,31.576-25.408,57.104-56.984,57.104
			s-56.984-25.527-56.984-57.104C79.07,1216.765,104.477,1191.359,136.054,1191.359z"/>
		<path style="fill:#FB9761;" d="M136.054,1200.402c26.599,0.002,48.001,21.379,48,47.951c0,26.57-21.402,48.049-48,48.049
			s-48-21.48-48-48.049C88.054,1221.783,109.455,1200.404,136.054,1200.402z"/>
		<g>
			<g>
				<path style="fill:#FFFFFF;" d="M135.109,1208.423c-4.116,0.473-7.19,4.008-7.087,8.148v63.662
					c0.004,4.436,3.603,8.027,8.038,8.025c4.43-0.004,8.021-3.596,8.024-8.025v-63.662c0.115-4.418-3.373-8.092-7.791-8.205
					C135.899,1208.355,135.503,1208.375,135.109,1208.423z"/>
				<path style="fill:#FFFFFF;" d="M103.338,1240.431c-4.387,0.527-7.516,4.512-6.988,8.898c0.478,3.973,3.816,6.98,7.817,7.045
					h63.779c4.403,0.377,8.277-2.887,8.654-7.289c0.377-4.402-2.887-8.277-7.289-8.654c-0.454-0.039-0.91-0.039-1.364,0h-63.779
					C103.89,1240.417,103.614,1240.417,103.338,1240.431L103.338,1240.431z"/>
			</g>
			<g>
				<path style="fill:#5A3392;" d="M326.959,1064.48c-1.797,0.23-3.462,1.064-4.723,2.365l-15.827,15.828
					c-3.156,3.105-3.196,8.182-0.089,11.338c3.106,3.156,8.183,3.195,11.338,0.09c0.03-0.029,0.06-0.061,0.09-0.09l15.827-15.828
					c3.19-3.059,3.296-8.123,0.238-11.313C332.043,1065.023,329.495,1064.134,326.959,1064.48L326.959,1064.48z"/>
				<path style="fill:#5A3392;" d="M231.172,1064.445c-4.394,0.467-7.578,4.408-7.111,8.801c0.198,1.863,1.043,3.598,2.388,4.9
					l15.826,15.828c2.889,3.344,7.941,3.711,11.285,0.822c3.343-2.889,3.712-7.941,0.823-11.285
					c-0.272-0.314-0.569-0.607-0.887-0.877l-15.827-15.826C235.973,1065.078,233.584,1064.208,231.172,1064.445L231.172,1064.445z"
					/>
				<path style="fill:#5A3392;" d="M295.266,1176.416c-4.117,0.412-7.241,3.895-7.205,8.031v79.961
					c-0.017,4.418,3.552,8.014,7.97,8.031c0.021,0,0.041,0,0.062,0h123.779c4.436-0.021,8.014-3.635,7.992-8.07
					c-0.021-4.404-3.587-7.971-7.992-7.992H304.006v-64.016h60c4.403,0.377,8.277-2.887,8.654-7.289
					c0.377-4.402-2.887-8.277-7.289-8.654c-0.454-0.039-0.91-0.039-1.364,0h-67.913c-0.276-0.014-0.553-0.014-0.828,0
					L295.266,1176.416z"/>
			</g>
		</g>
		<g>
			<path style="fill:#5A3392;" d="M119.997,1360.416c-21.997,0-39.937,17.941-39.937,39.938s17.941,40.031,39.937,40.031
				c21.996,0,40.031-18.035,40.031-40.031C160.028,1378.357,141.993,1360.416,119.997,1360.416z"/>
			<path style="fill:#5A3392;" d="M312.028,1360.416c-21.997,0-40.031,17.941-40.031,39.938s18.034,40.031,40.031,40.031
				c21.996,0,40.062-18.035,40.063-40.031C352.091,1378.357,334.025,1360.416,312.028,1360.416z"/>
			<path style="fill:#5A3392;" d="M176.211,1368.343c-4.436,0-8.032,3.596-8.032,8.033c0,4.436,3.596,8.031,8.032,8.031h79.724
				c4.436,0,8.032-3.596,8.032-8.031c0-4.438-3.596-8.033-8.032-8.033H176.211L176.211,1368.343z"/>
		</g>
	</g>
	<path style="fill:#5A3392;" d="M320.044,1400.404c-0.001,4.418-3.582,7.998-8,7.998s-7.999-3.58-8-7.998s3.58-8,7.998-8.002
		c0.001,0,0.001,0,0.002,0c4.418,0,8,3.582,8,8V1400.404z"/>
	<g shape-rendering="auto" image-rendering="auto" color-rendering="auto" color-interpolation="sRGB">
		<path style="fill:#29A3EC;" d="M119.991,1376.375c13.349,0,24.095,10.627,24.094,23.977c0,13.35-10.745,24.094-24.094,24.094
			c-13.35,0.002-23.977-10.744-23.977-24.094S106.641,1376.375,119.991,1376.375z"/>
		<path style="fill:#3CDEF6;" d="M120.011,1384.41c8.886,0,16.039,7.074,16.039,15.961s-7.153,16.039-16.039,16.039
			c-8.887,0-15.961-7.152-15.961-16.039C104.05,1391.482,111.124,1384.41,120.011,1384.41z"/>
	</g>
	<path style="fill:#5A3392;" d="M128.044,1400.404c-0.001,4.418-3.582,7.998-8,7.998s-7.999-3.58-8-7.998s3.58-8,7.998-8.002
		c0.001,0,0.001,0,0.002,0c4.418,0,8,3.582,8,8V1400.404z"/>
	<g shape-rendering="auto" image-rendering="auto" color-rendering="auto" color-interpolation="sRGB">
		<path style="fill:#29A3EC;" d="M311.98,1376.375c13.349,0,24.095,10.627,24.094,23.977c0,13.35-10.745,24.094-24.094,24.094
			c-13.35,0.002-23.977-10.744-23.977-24.094S298.63,1376.375,311.98,1376.375z"/>
		<path style="fill:#3CDEF6;" d="M312,1384.41c8.886,0,16.039,7.074,16.039,15.961s-7.153,16.039-16.039,16.039
			c-8.887,0-15.961-7.152-15.961-16.039C296.039,1391.482,303.113,1384.41,312,1384.41z"/>
	</g>
	<g>
		<path style="fill:#5A3392;" d="M320.033,1400.404c-0.001,4.418-3.582,7.998-8,7.998s-7.999-3.58-8-7.998s3.58-8,7.998-8.002
			c0.001,0,0.001,0,0.002,0c4.418,0,8,3.582,8,8V1400.404z"/>
		
			<path shape-rendering="auto" image-rendering="auto" color-rendering="auto" color-interpolation="sRGB" style="fill:#5A3392;" d="
			M145.366,1319.775c16.136-2.102,31.588-9.631,43.344-22.219c23.512-25.174,25.851-63.639,5.594-91.5s-57.551-37.447-88.75-22.844
			s-47.701,49.377-39.281,82.781c0.881,4.33,5.106,7.125,9.436,6.244s7.125-5.105,6.244-9.436c-0.049-0.242-0.109-0.48-0.18-0.715
			c-6.57-26.066,6.216-53.012,30.563-64.406c24.346-11.396,53.223-3.961,69.031,17.781s13.973,51.51-4.375,71.156
			c-18.348,19.645-47.917,23.506-70.688,9.217c-3.725-2.379-8.674-1.289-11.053,2.436c-2.379,3.727-1.289,8.674,2.436,11.055
			c0.039,0.023,0.078,0.049,0.117,0.072c14.59,9.154,31.427,12.479,47.563,10.375L145.366,1319.775z"/>
	</g>
</g>
</svg>